<svg width="250" height="250" viewBox="0 0 250 250" fill="none" xmlns="http://www.w3.org/2000/svg">
<g clip-path="url(#clip0_296_82)">
<rect width="250" height="250" fill="white"/>
<rect width="250" height="250" fill="url(#paint0_linear_296_82)"/>
<path d="M181 -28.7094V-61.1515H135V-66C135 -68.7614 132.761 -71 130 -71H125H120C117.239 -71 115 -68.7614 115 -66V-61.1515H72.7333C70.6715 -61.1515 69 -59.5054 69 -57.4747V-11.5166C69 -10.1239 69.7989 -8.85078 71.0637 -8.22797L147.09 29.2093C150.614 30.9444 149.355 36.1747 145.415 36.1747H92.5062C90.4443 36.1747 88.7647 34.5285 88.7647 32.4979V13.8978C88.7647 11.8672 87.0932 10.221 85.0314 10.221H72.7333C70.6715 10.221 69 11.8672 69 13.8978V49.1515H115V54C115 56.7614 117.239 59 120 59H125H130C132.761 59 135 56.7614 135 54V49.1515H177.267C179.329 49.1515 181 47.5054 181 45.4748V-5.56744C181 -7.59806 179.329 -9.24421 177.267 -9.24421H99.0863C97.0244 -9.24421 95.3529 -10.8904 95.3529 -12.921V-25.0327C95.3529 -27.0633 97.0244 -28.7094 99.0863 -28.7094H181Z" fill="#DBF226"/>
<path d="M69 103.688V73.2424H26.2857V69C26.2857 66.2386 24.0471 64 21.2857 64H17H12.7143C9.95286 64 7.71428 66.2386 7.71428 69V73.2424H-31.5333C-33.4479 73.2424 -35 74.7873 -35 76.6929V119.823C-35 121.13 -34.2581 122.325 -33.0837 122.909L37.5124 158.043C40.7843 159.671 39.6151 164.579 35.957 164.579H-13.1728C-15.0874 164.579 -16.6471 163.034 -16.6471 161.129V143.673C-16.6471 141.768 -18.1991 140.223 -20.1137 140.223H-31.5333C-33.4479 140.223 -35 141.768 -35 143.673V176.758H7.71428V181C7.71428 183.761 9.95286 186 12.7143 186H17H21.2857C24.0471 186 26.2857 183.761 26.2857 181V176.758H65.5333C67.4479 176.758 69 175.213 69 173.307V125.406C69 123.5 67.4479 121.955 65.5333 121.955H-7.06275C-8.97733 121.955 -10.5294 120.411 -10.5294 118.505V107.139C-10.5294 105.233 -8.97733 103.688 -7.06274 103.688H69Z" fill="#DBF226"/>
<path d="M181 233.291V200.848H135V196C135 193.239 132.761 191 130 191H125H120C117.239 191 115 193.239 115 196V200.848H72.7333C70.6715 200.848 69 202.495 69 204.525V250.483C69 251.876 69.7989 253.149 71.0637 253.772L147.09 291.209C150.614 292.944 149.355 298.175 145.415 298.175H92.5062C90.4443 298.175 88.7647 296.529 88.7647 294.498V275.898C88.7647 273.867 87.0932 272.221 85.0314 272.221H72.7333C70.6715 272.221 69 273.867 69 275.898V311.152H115V316C115 318.761 117.239 321 120 321H125H130C132.761 321 135 318.761 135 316V311.152H177.267C179.329 311.152 181 309.505 181 307.475V256.433C181 254.402 179.329 252.756 177.267 252.756H99.0863C97.0244 252.756 95.3529 251.11 95.3529 249.079V236.967C95.3529 234.937 97.0244 233.291 99.0863 233.291H181Z" fill="#DBF226"/>
<path d="M181 101.941V69H135V64C135 61.2386 132.761 59 130 59H125H120C117.239 59 115 61.2386 115 64V69H72.7333C70.6715 69 69 70.6715 69 72.7333V119.399C69 120.813 69.7989 122.105 71.0637 122.738L147.09 160.751C150.614 162.513 149.355 167.824 145.415 167.824H92.5062C90.4443 167.824 88.7647 166.152 88.7647 164.09V145.204C88.7647 143.142 87.0932 141.471 85.0314 141.471H72.7333C70.6715 141.471 69 143.142 69 145.204V181H115V186C115 188.761 117.239 191 120 191H125H130C132.761 191 135 188.761 135 186V181H177.267C179.329 181 181 179.329 181 177.267V125.439C181 123.377 179.329 121.706 177.267 121.706H99.0863C97.0244 121.706 95.3529 120.034 95.3529 117.973V105.675C95.3529 103.613 97.0244 101.941 99.0863 101.941H181Z" fill="black"/>
</g>
<defs>
<linearGradient id="paint0_linear_296_82" x1="222.321" y1="-11.6071" x2="17.8571" y2="258.929" gradientUnits="userSpaceOnUse">
<stop stop-color="#C1F20B"/>
<stop offset="1" stop-color="#F2E30C"/>
</linearGradient>
<clipPath id="clip0_296_82">
<rect width="250" height="250" fill="white"/>
</clipPath>
</defs>
</svg>
